# xmcd
#
# Track frame offsets: 
#        150
#        16448
#        32463
#        42980
#        58680
#        74330
#        86142
#        100162
#        117050
#        130840
#        146695
#        161730
#
# Disc length: 2348 seconds
#
# Revision: 5
# Processed by: cddbd v1.5.2PL0 Copyright (c) Steve Scherf et al.
# Submitted via: ExactAudioCopy v1.3
#
DISCID=a2092a0c
DTITLE=George Strait - 20th Century Masters The Millennium Collection
DYEAR=2002
DGENRE=Country
TTITLE0=Famous Last Words
TTITLE1=Baby Blue
TTITLE2=If You Ain't Lovin' (You Ain't Livin')
TTITLE3=Baby's Gotten Good At Goodbye
TTITLE4=What's Going On In Your World
TTITLE5=Ace In The Hole
TTITLE6=Love Without End, Amen
TTITLE7=I've Come To Expect It From You
TTITLE8=Easy Come, Easy Go
TTITLE9=I Cross My Heart
TTITLE10=All My Ex's Live In Texas
TTITLE11=You Look So Good In Love
EXTD=MCA Records
EXTT0=
EXTT1=
EXTT2=
EXTT3=
EXTT4=
EXTT5=
EXTT6=
EXTT7=
EXTT8=
EXTT9=
EXTT10=
EXTT11=
PLAYORDER=
